<svg width="60" height="60" viewBox="0 0 60 60" fill="none" xmlns="http://www.w3.org/2000/svg">
<path d="M31.1249 7.5C19.3124 7.5 9.74989 17.0625 9.74989 28.875C9.74989 30.75 9.93739 32.8125 10.4999 34.6875L8.43739 44.625C8.24989 45.5625 8.81239 46.6875 9.93739 46.875C10.8749 47.0625 11.9999 46.5 12.1874 45.375L14.4374 34.5L14.2499 34.125C13.6874 32.4375 13.4999 30.75 13.4999 28.875C13.4999 19.125 21.3749 11.25 31.1249 11.25C40.8749 11.25 48.7499 19.125 48.7499 28.875C48.7499 38.625 40.8749 46.5 31.1249 46.5C29.4374 46.5 27.5624 46.3125 25.8749 45.75L25.4999 45.5625L14.6249 47.8125C13.6874 48 12.9374 48.9375 13.1249 50.0625C13.3124 51 14.0624 51.5625 14.9999 51.5625C15.1874 51.5625 15.1874 51.5625 15.3749 51.5625L25.3124 49.5C27.1874 50.0625 29.0624 50.25 31.1249 50.25C42.9374 50.25 52.4999 40.6875 52.4999 28.875C52.4999 17.0625 42.9374 7.5 31.1249 7.5Z" fill="#6E808B"/>
<path d="M18.75 32.8125C18.75 33.9375 19.5 34.6875 20.625 34.6875H33.75C34.875 34.6875 35.625 33.9375 35.625 32.8125C35.625 31.6875 34.875 30.9375 33.75 30.9375H20.625C19.5 30.9375 18.75 31.6875 18.75 32.8125Z" fill="#6E808B"/>
<path d="M43.125 27.1875C44.25 27.1875 45 26.4375 45 25.3125C45 24.1875 44.25 23.4375 43.125 23.4375H26.25C25.125 23.4375 24.375 24.1875 24.375 25.3125C24.375 26.4375 25.125 27.1875 26.25 27.1875H43.125Z" fill="#6E808B"/>
<path d="M21.9375 24C21.1875 23.25 20.0625 23.25 19.3125 24C19.125 24.1875 18.9375 24.375 18.9375 24.5625C18.9375 24.75 18.75 24.9375 18.75 25.3125C18.75 25.5 18.75 25.5 18.75 25.6875C18.75 25.875 18.75 25.875 18.9375 26.0625C18.9375 26.25 18.9375 26.25 19.125 26.4375L19.3125 26.625C19.6875 27 20.25 27.1875 20.625 27.1875C21 27.1875 21.5625 27 21.9375 26.625C21.9375 26.4375 22.125 26.4375 22.125 26.4375C22.125 26.25 22.3125 26.25 22.3125 26.0625C22.3125 25.875 22.3125 25.875 22.5 25.6875C22.5 25.5 22.5 25.5 22.5 25.3125C22.5 25.125 22.5 24.75 22.3125 24.5625C22.3125 24.375 22.125 24.1875 21.9375 24Z" fill="#6E808B"/>
<path d="M10.6875 49.3123C10.5 49.1248 10.3125 48.9373 10.125 48.9373C9.375 48.5623 8.625 48.7498 8.0625 49.3123C7.875 49.4998 7.6875 49.6873 7.6875 49.8748C7.6875 50.0623 7.5 50.4373 7.5 50.6248C7.5 51.1873 7.6875 51.5623 8.0625 51.9373C8.25 52.1248 8.4375 52.3123 8.625 52.3123C8.8125 52.3123 9.1875 52.4998 9.375 52.4998C9.9375 52.4998 10.3125 52.3123 10.6875 51.9373C10.875 51.7498 11.0625 51.5623 11.0625 51.3748C11.0625 51.1873 11.25 50.8123 11.25 50.6248C11.25 50.4373 11.25 50.0623 11.0625 49.8748C10.875 49.6873 10.875 49.4998 10.6875 49.3123Z" fill="#6E808B"/>
</svg>
