<svg width="60" height="60" viewBox="0 0 60 60" fill="none" xmlns="http://www.w3.org/2000/svg">
<path d="M15.1875 27C15 27.1875 15 27.5625 15 27.75C15 28.3125 15.1875 28.6875 15.5625 29.0625C15.75 29.25 15.9375 29.4375 16.125 29.4375C16.3125 29.4375 16.5 29.625 16.875 29.625C17.4375 29.625 17.8125 29.4375 18.1875 29.0625C18.5625 28.6875 18.75 28.3125 18.75 27.75C18.75 27.5625 18.75 27.1875 18.5625 27C18.375 26.8125 18.375 26.625 18.1875 26.4375C17.4375 25.6875 16.3125 25.6875 15.5625 26.4375C15.375 26.625 15.1875 26.8125 15.1875 27Z" fill="#6E808B"/>
<path d="M35.625 33.75C36.75 33.75 37.5 33 37.5 31.875C37.5 30.75 36.75 30 35.625 30H31.875C30.75 30 30 30.75 30 31.875C30 33 30.75 33.75 31.875 33.75H35.625Z" fill="#6E808B"/>
<path d="M9.375 18.75C9.9375 18.75 10.3125 18.5625 10.6875 18.1875C11.0625 17.8125 11.25 17.4375 11.25 16.875C11.25 16.3125 11.0625 15.9375 10.6875 15.5625C9.9375 14.8125 8.8125 14.8125 8.0625 15.5625C7.6875 15.9375 7.5 16.3125 7.5 16.875C7.5 17.4375 7.6875 17.8125 8.0625 18.1875C8.4375 18.5625 8.8125 18.75 9.375 18.75Z" fill="#6E808B"/>
<path d="M45 31.875V28.125C45 22.875 40.875 18.75 35.625 18.75H24.375C21.9375 18.75 19.5 19.6875 17.8125 21.375C17.0625 22.125 17.0625 23.25 17.8125 24C18.5625 24.75 19.6875 24.75 20.4375 24C21.5625 22.875 22.875 22.3125 24.375 22.3125H35.625C38.8125 22.3125 41.25 24.75 41.25 27.9375V31.6875C41.25 34.875 38.8125 37.3125 35.625 37.3125H24.375C21.75 37.3125 19.3125 35.4375 18.9375 32.8125C18.75 31.875 17.8125 31.125 16.6875 31.3125C15.75 31.5 15 32.4375 15.1875 33.5625C15.9375 38.0625 19.875 41.25 24.375 41.25H35.625C40.875 41.25 45 37.125 45 31.875Z" fill="#6E808B"/>
<path d="M43.125 11.25C46.3125 11.25 48.75 13.6875 48.75 16.875C48.75 18 49.5 18.75 50.625 18.75C51.75 18.75 52.5 18 52.5 16.875C52.5 11.625 48.375 7.5 43.125 7.5C42 7.5 41.25 8.25 41.25 9.375C41.25 10.5 42 11.25 43.125 11.25Z" fill="#6E808B"/>
<path d="M50.625 41.25C49.5 41.25 48.75 42 48.75 43.125C48.75 46.3125 46.3125 48.75 43.125 48.75C42 48.75 41.25 49.5 41.25 50.625C41.25 51.75 42 52.5 43.125 52.5C48.375 52.5 52.5 48.375 52.5 43.125C52.5 42 51.75 41.25 50.625 41.25Z" fill="#6E808B"/>
<path d="M16.875 48.75C13.6875 48.75 11.25 46.3125 11.25 43.125C11.25 42 10.5 41.25 9.375 41.25C8.25 41.25 7.5 42 7.5 43.125C7.5 48.375 11.625 52.5 16.875 52.5C18 52.5 18.75 51.75 18.75 50.625C18.75 49.5 18 48.75 16.875 48.75Z" fill="#6E808B"/>
<path d="M11.25 13.875C11.8125 13.875 12.375 13.6875 12.75 13.3125C13.6875 12 15.1875 11.25 16.875 11.25C18 11.25 18.75 10.5 18.75 9.375C18.75 8.25 18 7.5 16.875 7.5C14.25 7.5 11.625 8.625 9.75003 10.6875C9.00003 11.4375 9.18753 12.5625 9.93753 13.3125C10.3125 13.6875 10.875 13.875 11.25 13.875Z" fill="#6E808B"/>
</svg>
