<svg width="60" height="60" viewBox="0 0 60 60" fill="none" xmlns="http://www.w3.org/2000/svg">
<path d="M37.9999 27.9375C40.2499 25.6875 41.5624 22.6875 41.5624 19.5C41.5624 12.75 36.3124 7.5 29.7499 7.5C23.1874 7.5 17.9374 12.75 17.9374 19.3125C17.9374 22.5 19.2499 25.6875 21.4999 27.75C17.3749 29.4375 14.1874 32.4375 12.3124 36.1875C11.9374 37.125 12.3124 38.25 13.2499 38.625C14.1874 39 15.3124 38.625 15.6874 37.6875C17.3749 33.9375 21.3124 31.125 25.9999 30.1875C26.7499 30 27.4999 29.4375 27.4999 28.5C27.4999 27.75 27.1249 27 26.3749 26.625C23.3749 25.3125 21.4999 22.5 21.4999 19.125C21.6874 14.8125 25.2499 11.25 29.7499 11.25C34.2499 11.25 37.8124 14.8125 37.8124 19.3125C37.8124 22.5 35.9374 25.5 32.9374 26.8125C32.1874 27.1875 31.8124 27.9375 31.8124 28.6875C31.8124 29.4375 32.5624 30.1875 33.3124 30.375C40.0624 31.6875 44.7499 36.5625 44.7499 42.1875C44.7499 47.25 41.1874 48.75 29.7499 48.75C23.7499 48.75 17.7499 48.5625 15.6874 45.75C15.1249 45 13.8124 44.8125 13.0624 45.375C12.3124 45.9375 12.1249 47.25 12.6874 48C15.8749 52.125 22.6249 52.5 29.7499 52.5C37.2499 52.5 48.4999 52.5 48.4999 42.1875C48.4999 36 44.3749 30.5625 37.9999 27.9375Z" fill="#6E808B"/>
<path d="M13.625 43.6875C13.8125 43.6875 14 43.5 14.1875 43.3125C14.375 43.125 14.5625 42.9375 14.5625 42.75C14.75 42.5625 14.75 42.1875 14.75 42C14.75 41.4375 14.5625 41.0625 14.1875 40.6875C13.8125 40.3125 13.0625 40.125 12.5 40.125C12.3125 40.125 12.3125 40.125 12.125 40.3125C11.9375 40.3125 11.9375 40.5 11.75 40.5L11.5625 40.6875C11.1875 41.0625 11 41.4375 11 42C11 42.5625 11.1875 42.9375 11.5625 43.3125C11.75 43.5 11.9375 43.6875 12.125 43.6875C12.3125 43.875 12.5 43.875 12.875 43.875C13.0625 43.875 13.4375 43.875 13.625 43.6875Z" fill="#6E808B"/>
</svg>
