<svg width="60" height="60" viewBox="0 0 60 60" fill="none" xmlns="http://www.w3.org/2000/svg">
<path d="M52.5 16.875C52.5 11.625 48.375 7.5 43.125 7.5H16.875C13.5 7.5 10.3125 9.375 8.625 12.375C8.0625 13.3125 8.4375 14.4375 9.375 15C10.3125 15.5625 11.4375 15.1875 12 14.25C12.9375 12.375 14.8125 11.25 16.875 11.25H43.125C46.3125 11.25 48.75 13.6875 48.75 16.875V43.125C48.75 43.875 48.5625 44.625 48.375 45.1875C40.6875 38.4375 31.5 33.375 21.75 30.75C20.8125 30.375 19.6875 31.125 19.5 32.0625C19.125 33 19.875 34.125 20.8125 34.3125C30 36.9375 38.625 41.625 45.9375 48C45 48.5625 44.0625 48.75 43.125 48.75H16.875C13.6875 48.75 11.25 46.3125 11.25 43.125V24.375C11.25 23.25 10.5 22.5 9.375 22.5C8.25 22.5 7.5 23.25 7.5 24.375V43.125C7.5 48.375 11.625 52.5 16.875 52.5H43.125C45.75 52.5 48.1875 51.375 49.875 49.5C49.875 49.5 50.0625 49.5 50.0625 49.3125C50.0625 49.3125 50.25 49.125 50.25 48.9375C51.5625 47.25 52.5 45.1875 52.5 42.9375V16.875Z" fill="#6E808B"/>
<path d="M43.125 20.625C43.125 17.4375 40.6875 15 37.5 15C34.3125 15 31.875 17.4375 31.875 20.625C31.875 23.8125 34.3125 26.25 37.5 26.25C40.6875 26.25 43.125 23.8125 43.125 20.625ZM35.625 20.625C35.625 19.5 36.375 18.75 37.5 18.75C38.625 18.75 39.375 19.5 39.375 20.625C39.375 21.75 38.625 22.5 37.5 22.5C36.375 22.5 35.625 21.75 35.625 20.625Z" fill="#6E808B"/>
<path d="M8.0625 20.0623C8.4375 20.4373 8.8125 20.6248 9.375 20.6248C9.5625 20.6248 9.9375 20.6248 10.125 20.4373C10.3125 20.2498 10.5 20.2498 10.6875 20.0623C10.875 19.8748 11.0625 19.6873 11.0625 19.4998C11.0625 19.3123 11.25 18.9373 11.25 18.7498C11.25 18.1873 11.0625 17.8123 10.6875 17.4373C10.5 17.2498 10.3125 17.0623 10.125 17.0623C9.375 16.6873 8.625 16.8748 8.0625 17.4373C7.6875 17.8123 7.5 18.1873 7.5 18.7498C7.5 18.9373 7.5 19.3123 7.6875 19.4998C7.6875 19.6873 7.875 19.8748 8.0625 20.0623Z" fill="#6E808B"/>
<path d="M15 33C15.1875 33 15.375 33.1875 15.75 33.1875C16.125 33.1875 16.3125 33.1875 16.5 33C16.6875 32.8125 16.875 32.8125 17.0625 32.625C17.25 32.4375 17.4375 32.25 17.4375 32.0625C17.4375 31.875 17.625 31.6875 17.625 31.3125C17.625 30.75 17.4375 30.375 17.0625 30C17.0625 30 16.875 29.8125 16.6875 29.8125C16.5 29.8125 16.5 29.625 16.3125 29.625C16.125 29.625 16.125 29.625 15.9375 29.4375C15.5625 29.4375 15.1875 29.4375 14.8125 29.625C14.625 29.625 14.4375 29.8125 14.25 30C13.875 30.375 13.6875 30.75 13.6875 31.3125C13.6875 31.5 13.6875 31.875 13.875 32.0625C14.0625 32.25 14.0625 32.4375 14.25 32.625C14.625 32.8125 14.8125 32.8125 15 33Z" fill="#6E808B"/>
</svg>
