<svg width="60" height="60" viewBox="0 0 60 60" fill="none" xmlns="http://www.w3.org/2000/svg">
<path d="M38 27.9375C40.25 25.6875 41.5625 22.6875 41.5625 19.5C41.5625 12.75 36.3125 7.5 29.75 7.5C23.1875 7.5 17.9375 12.75 17.9375 19.3125C17.9375 22.5 19.25 25.6875 21.5 27.75C17.375 29.4375 14.1875 32.4375 12.3125 36.1875C11.9375 37.125 12.3125 38.25 13.25 38.625C14.1875 39 15.3125 38.625 15.6875 37.6875C17.375 33.9375 21.3125 31.125 26 30.1875C26.75 30 27.5 29.4375 27.5 28.5C27.5 27.75 27.125 27 26.375 26.625C23.375 25.3125 21.5 22.5 21.5 19.125C21.6875 14.8125 25.25 11.25 29.75 11.25C34.25 11.25 37.8125 14.8125 37.8125 19.3125C37.8125 22.5 35.9375 25.5 32.9375 26.8125C32.1875 27.1875 31.8125 27.9375 31.8125 28.6875C31.8125 29.4375 32.5625 30.1875 33.3125 30.375C40.0625 31.6875 44.75 36.5625 44.75 42.1875C44.75 47.25 41.1875 48.75 29.75 48.75C23.75 48.75 17.75 48.5625 15.6875 45.75C15.125 45 13.8125 44.8125 13.0625 45.375C12.3125 45.9375 12.125 47.25 12.6875 48C15.875 52.125 22.625 52.5 29.75 52.5C37.25 52.5 48.5 52.5 48.5 42.1875C48.5 36 44.375 30.5625 38 27.9375Z" fill="#6E808B"/>
<path d="M13.625 43.6875C13.8125 43.6875 14 43.5 14.1875 43.3125C14.375 43.125 14.5625 42.9375 14.5625 42.75C14.75 42.5625 14.75 42.1875 14.75 42C14.75 41.4375 14.5625 41.0625 14.1875 40.6875C13.8125 40.3125 13.0625 40.125 12.5 40.125C12.3125 40.125 12.3125 40.125 12.125 40.3125C11.9375 40.3125 11.9375 40.5 11.75 40.5L11.5625 40.6875C11.1875 41.0625 11 41.4375 11 42C11 42.5625 11.1875 42.9375 11.5625 43.3125C11.75 43.5 11.9375 43.6875 12.125 43.6875C12.3125 43.875 12.5 43.875 12.875 43.875C13.0625 43.875 13.4375 43.875 13.625 43.6875Z" fill="#6E808B"/>
</svg>
