<svg width="60" height="60" viewBox="0 0 60 60" fill="none" xmlns="http://www.w3.org/2000/svg">
<path d="M24.9375 35.0625C25.3125 35.4375 25.875 35.625 26.25 35.625C26.625 35.625 27.1875 35.4375 27.5625 35.0625L51.9375 10.6875C52.6875 9.9375 52.6875 8.8125 51.9375 8.0625C51.1875 7.3125 50.0625 7.3125 49.3125 8.0625L24.9375 32.4375C24.1875 33.1875 24.1875 34.3125 24.9375 35.0625Z" fill="#6E808B"/>
<path d="M8.25 10.875C8.25 10.875 8.4375 11.0625 8.625 11.0625C8.8125 11.0625 8.8125 11.0625 9 11.25C9.1875 11.25 9.1875 11.25 9.375 11.25C9.5625 11.25 9.5625 11.25 9.75 11.25C9.9375 11.25 9.9375 11.25 10.125 11.0625C10.3125 11.0625 10.3125 10.875 10.5 10.875C10.5 10.875 10.6875 10.6875 10.875 10.6875C11.0625 10.3125 11.25 9.9375 11.25 9.375C11.25 9.1875 11.25 8.8125 11.0625 8.625C11.0625 8.4375 10.875 8.25 10.6875 8.0625C10.6875 8.0625 10.5 7.875 10.3125 7.875C10.125 7.875 10.125 7.6875 9.9375 7.6875C9.9375 7.5 9.9375 7.5 9.75 7.5C9.5625 7.5 9.1875 7.5 9 7.5C8.8125 7.5 8.8125 7.5 8.625 7.6875C8.4375 7.6875 8.4375 7.875 8.25 7.875C8.0625 7.875 8.0625 8.0625 7.875 8.0625C7.875 8.25 7.6875 8.4375 7.6875 8.625C7.5 8.8125 7.5 9.1875 7.5 9.375C7.5 9.9375 7.6875 10.3125 8.0625 10.6875C8.0625 10.875 8.25 10.875 8.25 10.875Z" fill="#6E808B"/>
<path d="M21.1875 36.1875C21 36.375 20.8125 36.5625 20.8125 36.75C20.625 36.9375 20.625 37.3125 20.625 37.5C20.625 37.6875 20.625 38.0625 20.8125 38.25C20.8125 38.4375 21 38.625 21.1875 38.8125C21.5625 39.1875 21.9375 39.375 22.5 39.375C22.6875 39.375 23.0625 39.375 23.25 39.1875C23.4375 39.1875 23.625 39 23.8125 38.8125C24 38.625 24.1875 38.4375 24.1875 38.25C24.1875 38.0625 24.375 37.6875 24.375 37.5C24.375 37.3125 24.375 36.9375 24.1875 36.75C24.1875 36.5625 24 36.375 23.8125 36.1875C23.0625 35.4375 21.9375 35.4375 21.1875 36.1875Z" fill="#6E808B"/>
<path d="M50.625 16.875C49.5 16.875 48.75 17.625 48.75 18.75V43.125C48.75 46.3125 46.3125 48.75 43.125 48.75H16.875C13.6875 48.75 11.25 46.3125 11.25 43.125V16.875C11.25 15.75 10.5 15 9.375 15C8.25 15 7.5 15.75 7.5 16.875V43.125C7.5 48.375 11.625 52.5 16.875 52.5H43.125C48.375 52.5 52.5 48.375 52.5 43.125V18.75C52.5 17.625 51.75 16.875 50.625 16.875Z" fill="#6E808B"/>
<path d="M16.875 11.25H41.25C42.375 11.25 43.125 10.5 43.125 9.375C43.125 8.25 42.375 7.5 41.25 7.5H16.875C15.75 7.5 15 8.25 15 9.375C15 10.5 15.75 11.25 16.875 11.25Z" fill="#6E808B"/>
</svg>
