<svg width="60" height="60" viewBox="0 0 60 60" fill="none" xmlns="http://www.w3.org/2000/svg">
<path d="M44.0625 39.1875V35.625C44.0625 32.625 42.5625 29.8125 40.3125 28.125V11.25C40.3125 10.125 39.5625 9.375 38.4375 9.375C37.3125 9.375 36.5625 10.125 36.5625 11.25V26.25H34.6875H25.3125H23.4375V13.125C23.4375 9.9375 25.875 7.5 29.0625 7.5H31.875C33 7.5 33.75 6.75 33.75 5.625C33.75 4.5 33 3.75 31.875 3.75H29.0625C23.8125 3.75 19.6875 7.875 19.6875 13.125V28.125C17.4375 29.8125 15.9375 32.4375 15.9375 35.625V39.1875C13.125 41.25 11.25 45 11.25 49.3125C11.25 50.4375 12 51.1875 13.125 51.1875C14.25 51.1875 15 50.4375 15 49.3125C15 45 17.625 41.25 20.625 41.25H39.375C42.375 41.25 45 45 45 49.3125V54.375C45 55.5 45.75 56.25 46.875 56.25C48 56.25 48.75 55.5 48.75 54.375V49.3125C48.75 45 46.875 41.25 44.0625 39.1875ZM20.625 37.5H19.6875V35.625C19.6875 32.4375 22.125 30 25.3125 30H34.6875C37.875 30 40.3125 32.4375 40.3125 35.625V37.5H39.375H20.625Z" fill="#6E808B"/>
<path d="M14.8125 53.625C14.8125 53.4375 14.625 53.4375 14.625 53.25C14.625 53.25 14.4375 53.0625 14.4375 52.875C13.6875 52.125 12.5625 52.125 11.8125 52.875C11.4375 53.4375 11.25 53.8125 11.25 54.375C11.25 54.9375 11.4375 55.3125 11.8125 55.6875C12 55.875 12.1875 56.0625 12.375 56.0625C12.5625 56.25 12.9375 56.25 13.125 56.25C13.6875 56.25 14.0625 56.0625 14.4375 55.6875C14.8125 55.3125 15 54.9375 15 54.375C15 54.1875 15 54.1875 15 54C15 53.8125 15 53.8125 14.8125 53.625Z" fill="#6E808B"/>
<path d="M37.125 6.93685C37.3125 7.12435 37.5 7.31185 37.6875 7.31185C37.875 7.49935 38.25 7.49935 38.4375 7.49935C39 7.49935 39.375 7.31185 39.75 6.93685C40.125 6.56185 40.3125 6.18685 40.3125 5.62435C40.3125 5.06185 40.125 4.68685 39.75 4.31185C39.75 4.31185 39.5625 4.12435 39.375 4.12435C39.375 4.12435 39.1875 3.93685 39 3.93685C38.8125 3.93685 38.8125 3.93685 38.625 3.93685C38.25 3.74935 37.875 3.93685 37.5 3.93685C37.3125 4.12435 37.125 4.12435 36.9375 4.31185C36.5625 4.68685 36.375 5.24935 36.375 5.62435C36.375 5.81185 36.375 6.18685 36.5625 6.37435C36.75 6.56185 36.9375 6.74935 37.125 6.93685Z" fill="#6E808B"/>
</svg>
