<svg width="60" height="60" viewBox="0 0 60 60" fill="none" xmlns="http://www.w3.org/2000/svg">
<path d="M43.125 19.6875C44.25 19.6875 45 18.9375 45 17.8125C45 16.6875 44.25 15.9375 43.125 15.9375H23.4375C22.3125 15.9375 21.5625 16.6875 21.5625 17.8125C21.5625 18.9375 22.3125 19.6875 23.4375 19.6875H43.125Z" fill="#6E808B"/>
<path d="M16.875 27.1875H43.125C44.25 27.1875 45 26.4375 45 25.3125C45 24.1875 44.25 23.4375 43.125 23.4375H16.875C15.75 23.4375 15 24.1875 15 25.3125C15 26.4375 15.75 27.1875 16.875 27.1875Z" fill="#6E808B"/>
<path d="M16.875 34.6875H43.125C44.25 34.6875 45 33.9375 45 32.8125C45 31.6875 44.25 30.9375 43.125 30.9375H16.875C15.75 30.9375 15 31.6875 15 32.8125C15 33.9375 15.75 34.6875 16.875 34.6875Z" fill="#6E808B"/>
<path d="M16.875 42.1875H31.875C33 42.1875 33.75 41.4375 33.75 40.3125C33.75 39.1875 33 38.4375 31.875 38.4375H16.875C15.75 38.4375 15 39.1875 15 40.3125C15 41.4375 15.75 42.1875 16.875 42.1875Z" fill="#6E808B"/>
<path d="M18.1875 19.125C18.5625 18.75 18.75 18.375 18.75 17.8125C18.75 17.625 18.75 17.25 18.5625 17.0625C18.5625 16.875 18.375 16.6875 18.1875 16.5C17.4375 15.75 16.3125 15.75 15.5625 16.5C15.375 16.6875 15.1875 16.875 15.1875 17.0625C15 17.25 15 17.625 15 17.8125C15 18.375 15.1875 18.75 15.5625 19.125C15.9375 19.5 16.3125 19.6875 16.875 19.6875C17.4375 19.6875 17.8125 19.5 18.1875 19.125Z" fill="#6E808B"/>
<path d="M43.125 7.5H16.875C15.75 7.5 15 8.25 15 9.375C15 10.5 15.75 11.25 16.875 11.25H43.125C46.3125 11.25 48.75 13.6875 48.75 16.875V43.125C48.75 46.3125 46.3125 48.75 43.125 48.75H16.875C13.6875 48.75 11.25 46.3125 11.25 43.125V16.875C11.25 15.75 10.5 15 9.375 15C8.25 15 7.5 15.75 7.5 16.875V43.125C7.5 48.375 11.625 52.5 16.875 52.5H43.125C48.375 52.5 52.5 48.375 52.5 43.125V16.875C52.5 11.625 48.375 7.5 43.125 7.5Z" fill="#6E808B"/>
<path d="M8.0625 10.6875C8.4375 11.0625 8.8125 11.25 9.375 11.25C9.5625 11.25 9.9375 11.25 10.125 11.0625C10.3125 10.875 10.5 10.875 10.6875 10.6875C10.875 10.5 11.0625 10.3125 11.0625 10.125C11.0625 9.9375 11.25 9.5625 11.25 9.375C11.25 8.8125 11.0625 8.4375 10.6875 8.0625C9.9375 7.3125 8.8125 7.3125 8.0625 8.0625C7.6875 8.4375 7.5 8.8125 7.5 9.375C7.5 9.5625 7.5 9.9375 7.6875 10.125C7.6875 10.3125 7.875 10.5 8.0625 10.6875Z" fill="#6E808B"/>
</svg>
