<svg width="60" height="60" viewBox="0 0 60 60" fill="none" xmlns="http://www.w3.org/2000/svg">
<path d="M9.31246 11.75C9.49996 11.75 9.68746 11.75 10.0625 11.75C10.4375 11.75 11 11.75 11.375 11.375C11.5625 11 11.9375 10.4375 11.9375 9.875C11.9375 9.6875 11.9375 9.3125 11.75 9.125C11.5625 8.9375 11.5625 8.75 11.375 8.5625C11.375 8.5625 11.1875 8.375 11 8.375C11 8.375 10.8125 8.1875 10.625 8.1875C10.4375 8.1875 10.4375 8.1875 10.25 8C9.68746 8 9.12496 8.1875 8.56246 8.5625C8.56246 8.75 8.37496 8.9375 8.18746 9.3125C7.99996 9.6875 8.18746 9.6875 8.18746 9.875C8.18746 10.4375 8.37496 10.8125 8.74996 11.1875C8.74996 11.375 8.93746 11.5625 9.31246 11.75Z" fill="#6E808B"/>
<path d="M41.375 35.1875C41.375 31.8125 38.5625 29 35.1875 29C31.8125 29 29 31.8125 29 35.1875C29 38.5625 31.8125 41.375 35.1875 41.375C38.5625 41.375 41.375 38.5625 41.375 35.1875ZM32.9375 35.1875C32.9375 33.875 34.0625 32.75 35.375 32.75C36.6875 32.75 37.8125 33.875 37.8125 35.1875C37.8125 36.5 36.6875 37.625 35.375 37.625C34.0625 37.625 32.9375 36.5 32.9375 35.1875Z" fill="#6E808B"/>
<path d="M50.5625 26.1875L35.375 11C34.0625 9.6875 32.1875 8.1875 29.1875 8.1875L18.6875 8C17.75 8 16.8125 8.75 16.8125 9.875C16.8125 11 17.5625 11.75 18.6875 11.75L29.1875 11.9375C30.5 11.9375 31.4375 12.5 32.75 13.625L47.9375 28.8125C49.8125 30.6875 49.8125 33.6875 47.9375 35.5625L35.75 47.75C33.875 49.625 30.875 49.625 29 47.75L13.625 32.75C12.5 31.625 11.9375 30.5 11.9375 29.1875L11.75 18.5C11.75 17.5625 10.8125 16.625 9.875 16.625C8.75 16.625 8 17.5625 8 18.5L8.1875 29C8.1875 31.4375 9.125 33.3125 11 35.1875L26.1875 50.375C27.875 52.0625 29.9375 52.8125 32.1875 52.8125C34.4375 52.8125 36.5 52.0625 38.1875 50.375L50.375 38.1875C53.75 35 53.75 29.5625 50.5625 26.1875Z" fill="#6E808B"/>
</svg>
