<svg width="24" height="24" viewBox="0 0 24 24" fill="none" xmlns="http://www.w3.org/2000/svg">
<path d="M19.7999 11.5247L14.1333 5.85209C13.8666 5.58515 13.4666 5.58515 13.1999 5.85209C12.9333 6.11904 12.9333 6.51946 13.1999 6.7864L17.7333 11.3245L6.99992 11.3245C6.59992 11.3245 6.33325 11.5914 6.33325 11.9918C6.33325 12.3922 6.59992 12.6592 6.99992 12.6592L17.7333 12.6592L11.5333 18.8657C11.2666 19.1326 11.2666 19.533 11.5333 19.8C11.6666 19.9334 11.8666 20.0002 11.9999 20.0002C12.1333 20.0002 12.3333 19.9334 12.4666 19.8L19.7999 12.459C20.0666 12.192 20.0666 11.7916 19.7999 11.5247Z" fill="white"/>
<path d="M11.9999 5.31804C12.1999 5.31804 12.3333 5.2513 12.4666 5.11783C12.5999 4.98436 12.6666 4.85089 12.6666 4.65068C12.6666 4.45047 12.5999 4.317 12.4666 4.18352C12.3999 4.11679 12.3333 4.05005 12.2666 4.05005C12.1333 3.98332 11.9333 3.98332 11.7333 4.05005C11.6666 4.11679 11.5999 4.11679 11.5333 4.18352C11.3999 4.317 11.3333 4.45047 11.3333 4.65068C11.3333 4.85089 11.3999 4.98436 11.5333 5.11783C11.6666 5.2513 11.7999 5.31804 11.9999 5.31804Z" fill="white"/>
<path d="M5.26667 11.7248C5.26667 11.6581 5.2 11.6581 5.2 11.5913C5.2 11.5246 5.13333 11.5246 5.13333 11.5246C5.13333 11.5246 5.06667 11.4579 5 11.4579C4.93333 11.4579 4.93333 11.3911 4.86667 11.3911C4.66667 11.2577 4.4 11.3244 4.2 11.5246L4.13333 11.5913C4.13333 11.6581 4.06667 11.6581 4.06667 11.7248C4.06667 11.7915 4.06667 11.7915 4 11.8583C4 11.925 4 11.925 4 11.9918C4 12.192 4.06667 12.3254 4.2 12.4589C4.33333 12.5924 4.46667 12.6591 4.66667 12.6591C4.73333 12.6591 4.86667 12.6591 4.93333 12.5924C5 12.5256 5.06667 12.5256 5.13333 12.4589C5.26667 12.3254 5.33333 12.192 5.33333 11.9918C5.33333 11.925 5.33333 11.925 5.33333 11.8583C5.33333 11.7915 5.26667 11.7915 5.26667 11.7248Z" fill="white"/>
</svg>
