<svg width="24" height="24" viewBox="0 0 24 24" fill="none" xmlns="http://www.w3.org/2000/svg">
<path d="M11.5246 4.19997L5.85206 9.86664C5.58512 10.1333 5.58512 10.5333 5.85206 10.8C6.11901 11.0666 6.51943 11.0666 6.78637 10.8L11.3244 6.26664L11.3244 17C11.3244 17.4 11.5914 17.6666 11.9918 17.6666C12.3922 17.6666 12.6592 17.4 12.6592 17L12.6592 6.26664L18.8656 12.4666C19.1326 12.7333 19.533 12.7333 19.7999 12.4666C19.9334 12.3333 20.0001 12.1333 20.0001 12C20.0001 11.8666 19.9334 11.6666 19.7999 11.5333L12.4589 4.19997C12.192 3.93331 11.7916 3.93331 11.5246 4.19997Z" fill="white"/>
<path d="M5.31804 12C5.31804 11.8 5.2513 11.6667 5.11783 11.5333C4.98436 11.4 4.85089 11.3333 4.65068 11.3333C4.45047 11.3333 4.317 11.4 4.18352 11.5333C4.11679 11.6 4.05005 11.6667 4.05005 11.7333C3.98332 11.8667 3.98332 12.0667 4.05005 12.2667C4.11679 12.3333 4.11679 12.4 4.18352 12.4667C4.317 12.6 4.45047 12.6667 4.65068 12.6667C4.85089 12.6667 4.98436 12.6 5.11783 12.4667C5.2513 12.3333 5.31804 12.2 5.31804 12Z" fill="white"/>
<path d="M11.7249 18.7333C11.6582 18.7333 11.6582 18.8 11.5914 18.8C11.5247 18.8 11.5247 18.8667 11.5247 18.8667C11.5247 18.8667 11.458 18.9333 11.458 19C11.458 19.0667 11.3912 19.0667 11.3912 19.1333C11.2577 19.3333 11.3245 19.6 11.5247 19.8L11.5914 19.8667C11.6582 19.8667 11.6582 19.9333 11.7249 19.9333C11.7916 19.9333 11.7916 19.9333 11.8584 20C11.9251 20 11.9251 20 11.9918 20C12.1921 20 12.3255 19.9333 12.459 19.8C12.5925 19.6667 12.6592 19.5333 12.6592 19.3333C12.6592 19.2667 12.6592 19.1333 12.5925 19.0667C12.5257 19 12.5257 18.9333 12.459 18.8667C12.3255 18.7333 12.1921 18.6667 11.9918 18.6667C11.9251 18.6667 11.9251 18.6667 11.8584 18.6667C11.7916 18.6667 11.7916 18.7333 11.7249 18.7333Z" fill="white"/>
</svg>
