<svg width="24" height="24" viewBox="0 0 24 24" fill="none" xmlns="http://www.w3.org/2000/svg">
<path d="M12.4754 19.8L18.1479 14.1333C18.4149 13.8667 18.4149 13.4667 18.1479 13.2C17.881 12.9333 17.4806 12.9333 17.2136 13.2L12.6756 17.7333L12.6756 7.00001C12.6756 6.60001 12.4086 6.33334 12.0082 6.33334C11.6078 6.33334 11.3408 6.60001 11.3408 7.00001L11.3408 17.7333L5.13438 11.5333C4.86743 11.2667 4.46702 11.2667 4.20007 11.5333C4.0666 11.6667 3.99986 11.8667 3.99986 12C3.99986 12.1333 4.0666 12.3333 4.20007 12.4667L11.5411 19.8C11.808 20.0667 12.2084 20.0667 12.4754 19.8Z" fill="white"/>
<path d="M18.682 12C18.682 12.2 18.7487 12.3333 18.8822 12.4666C19.0156 12.6 19.1491 12.6666 19.3493 12.6666C19.5495 12.6666 19.683 12.6 19.8165 12.4666C19.8832 12.4 19.9499 12.3333 19.9499 12.2666C20.0167 12.1333 20.0167 11.9333 19.9499 11.7333C19.8832 11.6666 19.8832 11.6 19.8165 11.5333C19.683 11.4 19.5495 11.3333 19.3493 11.3333C19.1491 11.3333 19.0156 11.4 18.8822 11.5333C18.7487 11.6666 18.682 11.8 18.682 12Z" fill="white"/>
<path d="M12.2751 5.26667C12.3418 5.26667 12.3418 5.2 12.4086 5.2C12.4753 5.2 12.4753 5.13333 12.4753 5.13333C12.4753 5.13333 12.542 5.06667 12.542 5C12.542 4.93333 12.6088 4.93333 12.6088 4.86667C12.7423 4.66667 12.6755 4.4 12.4753 4.2L12.4086 4.13333C12.3418 4.13333 12.3418 4.06667 12.2751 4.06667C12.2084 4.06667 12.2084 4.06667 12.1416 4C12.0749 4 12.0749 4 12.0082 4C11.8079 4 11.6745 4.06667 11.541 4.2C11.4075 4.33333 11.3408 4.46667 11.3408 4.66667C11.3408 4.73333 11.3408 4.86667 11.4075 4.93333C11.4743 5 11.4743 5.06667 11.541 5.13333C11.6745 5.26667 11.8079 5.33333 12.0082 5.33333C12.0749 5.33333 12.0749 5.33333 12.1416 5.33333C12.2084 5.33333 12.2084 5.26667 12.2751 5.26667Z" fill="white"/>
</svg>
