<svg width="24" height="24" viewBox="0 0 24 24" fill="none" xmlns="http://www.w3.org/2000/svg">
<path fill-rule="evenodd" clip-rule="evenodd" d="M12.1423 4C7.63982 4 4 7.66665 4 12.2028C4 15.8288 6.33216 18.8981 9.56748 19.9844C9.97197 20.0661 10.1201 19.8079 10.1201 19.5908C10.1201 19.4006 10.1068 18.7488 10.1068 18.0696C7.84182 18.5586 7.37015 17.0918 7.37015 17.0918C7.00615 16.1411 6.46682 15.8968 6.46682 15.8968C5.72549 15.3943 6.52082 15.3943 6.52082 15.3943C7.34315 15.4486 7.77465 16.2363 7.77465 16.2363C8.50248 17.4856 9.67531 17.1326 10.1471 16.9153C10.2145 16.3856 10.4303 16.0189 10.6595 15.8153C8.85298 15.6251 6.95232 14.919 6.95232 11.7681C6.95232 10.8718 7.27565 10.1385 7.78798 9.56814C7.70715 9.36448 7.42399 8.52231 7.86898 7.39515C7.86898 7.39515 8.55648 7.17782 10.1066 8.23715C10.7703 8.05759 11.4548 7.96625 12.1423 7.96548C12.8298 7.96548 13.5306 8.06065 14.1778 8.23715C15.7281 7.17782 16.4156 7.39515 16.4156 7.39515C16.8606 8.52231 16.5773 9.36448 16.4964 9.56814C17.0223 10.1385 17.3323 10.8718 17.3323 11.7681C17.3323 14.919 15.4316 15.6115 13.6116 15.8153C13.9083 16.0733 14.1643 16.5621 14.1643 17.3363C14.1643 18.4363 14.151 19.3191 14.151 19.5906C14.151 19.8079 14.2993 20.0661 14.7036 19.9846C17.9389 18.8979 20.2711 15.8288 20.2711 12.2028C20.2844 7.66665 16.6313 4 12.1423 4Z" fill="white"/>
</svg>
