<svg width="24" height="24" viewBox="0 0 24 24" fill="none" xmlns="http://www.w3.org/2000/svg">
<path fill-rule="evenodd" clip-rule="evenodd" d="M19.3846 3.76923H14.7692C14.7692 2.24062 13.5286 1 12 1H7.38462C6.87508 1 6.46154 1.41354 6.46154 1.92308C6.46154 2.43262 6.87508 2.84615 7.38462 2.84615H12C12.5095 2.84615 12.9231 3.25969 12.9231 3.76923H7.04123H4.61538C2.07138 3.76923 0 5.84062 0 8.38462V15.7692C0 18.3132 2.07138 20.3846 4.61538 20.3846H6.64615V22.2308C6.64615 22.7403 7.05969 23.1538 7.56923 23.1538C8.07877 23.1538 8.49231 22.7403 8.49231 22.2308V20.3846H15.5077V22.2308C15.5077 22.7403 15.9212 23.1538 16.4308 23.1538C16.9403 23.1538 17.3538 22.7403 17.3538 22.2308V20.3846H19.3846C21.9286 20.3846 24 18.3132 24 15.7692V8.38462C24 5.84062 21.9286 3.76923 19.3846 3.76923ZM22.1538 15.7692C22.1538 17.2978 20.9132 18.5385 19.3846 18.5385H4.61538C3.08677 18.5385 1.84615 17.2978 1.84615 15.7692V8.38462C1.84615 6.856 3.08677 5.61538 4.61538 5.61538H7.04123H14.7692H19.3846C20.9132 5.61538 22.1538 6.856 22.1538 8.38462V15.7692ZM6.64616 11.1539C6.64616 10.6443 7.0597 10.2308 7.56924 10.2308C8.07877 10.2308 8.49231 10.6443 8.49231 11.1539V13C8.49231 13.5095 8.07877 13.9231 7.56924 13.9231C7.0597 13.9231 6.64616 13.5095 6.64616 13V11.1539ZM15.5077 11.1539C15.5077 10.6443 15.9213 10.2308 16.4308 10.2308C16.9403 10.2308 17.3539 10.6443 17.3539 11.1539V13C17.3539 13.5095 16.9403 13.9231 16.4308 13.9231C15.9213 13.9231 15.5077 13.5095 15.5077 13V11.1539ZM5.53846 1.92308C5.53846 2.43288 5.12518 2.84615 4.61538 2.84615C4.10558 2.84615 3.6923 2.43288 3.6923 1.92308C3.6923 1.41328 4.10558 1 4.61538 1C5.12518 1 5.53846 1.41328 5.53846 1.92308Z" fill="white"/>
</svg>
