<svg width="24" height="24" viewBox="0 0 24 24" fill="none" xmlns="http://www.w3.org/2000/svg">
<path fill-rule="evenodd" clip-rule="evenodd" d="M23.1429 4.71429H4.28571C3.77143 4.71429 3.42857 4.37143 3.42857 3.85714C3.42857 3.34286 3.77143 3 4.28571 3H23.1429C23.6571 3 24 3.34286 24 3.85714C24 4.37143 23.6571 4.71429 23.1429 4.71429ZM0.857143 10.7143H23.1429C23.6571 10.7143 24 11.0571 24 11.5714C24 12.0857 23.6571 12.4286 23.1429 12.4286H0.857143C0.342857 12.4286 0 12.0857 0 11.5714C0 11.0571 0.342857 10.7143 0.857143 10.7143ZM23.1429 18.4286H0.857143C0.342857 18.4286 0 18.7714 0 19.2857C0 19.8 0.342857 20.1429 0.857143 20.1429H23.1429C23.6571 20.1429 24 19.8 24 19.2857C24 18.7714 23.6571 18.4286 23.1429 18.4286ZM0.857143 4.71432C1.33053 4.71432 1.71429 4.33056 1.71429 3.85717C1.71429 3.38379 1.33053 3.00003 0.857143 3.00003C0.383756 3.00003 0 3.38379 0 3.85717C0 4.33056 0.383756 4.71432 0.857143 4.71432Z" fill="white"/>
</svg>
