<svg width="24" height="24" viewBox="0 0 24 24" fill="none" xmlns="http://www.w3.org/2000/svg">
<g clip-path="url(#clip0_505_34)">
<path fill-rule="evenodd" clip-rule="evenodd" d="M4.66675 5.72913C4.66675 5.1425 5.15436 4.66666 5.75589 4.66666H18.3161C18.9176 4.66666 19.4052 5.1425 19.4052 5.72913V18.4362C19.4052 19.023 18.9176 19.4986 18.3161 19.4986H5.75589C5.15436 19.4986 4.66675 19.023 4.66675 18.4362V5.72913ZM9.13444 17.0826V10.3851H6.90832V17.0826H9.13444ZM8.02137 9.47067C8.79766 9.47067 9.28084 8.95638 9.28084 8.31366C9.26637 7.65648 8.79766 7.15646 8.03609 7.15646C7.27461 7.15646 6.77672 7.65648 6.77672 8.31366C6.77672 8.95638 7.2598 9.47067 8.00686 9.47067H8.02137ZM12.5923 17.0826H10.3662C10.3662 17.0826 10.3955 11.0135 10.3663 10.3851H12.5924V11.3333C12.5874 11.3411 12.5824 11.3488 12.5775 11.3564H12.5924V11.3333C12.8882 10.877 13.4177 10.2279 14.5986 10.2279C16.0632 10.2279 17.1614 11.1852 17.1614 13.2423V17.0826H14.9355V13.4996C14.9355 12.5992 14.6133 11.985 13.8078 11.985C13.1928 11.985 12.8265 12.3993 12.6656 12.7992C12.6068 12.9423 12.5923 13.1423 12.5923 13.3424V17.0826Z" fill="white"/>
</g>
<defs>
<clipPath id="clip0_505_34">
<rect x="4" y="4" width="16" height="16" fill="white"/>
</clipPath>
</defs>
</svg>
