<svg width="24" height="24" viewBox="0 0 24 24" fill="none" xmlns="http://www.w3.org/2000/svg">
<path fill-rule="evenodd" clip-rule="evenodd" d="M19.3334 9.0238V9.23332V9.39047V14.6809C19.3334 16.1476 18.181 17.3 16.7144 17.3H7.2858C5.81913 17.3 4.66675 16.7238 4.66675 15.6762C4.66675 15.3619 4.87627 15.1524 5.19056 15.1524C5.50484 15.1524 5.71437 15.3619 5.71437 15.6762C5.71437 16.2 6.39532 16.2524 7.2858 16.2524H16.7144C17.6048 16.2524 18.2858 15.5714 18.2858 14.6809V11.5381C18.181 11.6428 18.0763 11.6952 17.9715 11.7476L13.2572 14.3667C12.8906 14.5762 12.4191 14.6809 12.0001 14.6809C11.581 14.6809 11.162 14.5762 10.7429 14.3667L6.02865 11.7476C5.97627 11.7214 5.92389 11.6821 5.87151 11.6428C5.81913 11.6036 5.76675 11.5643 5.71437 11.5381C5.71437 11.8524 5.50484 12.0619 5.19056 12.0619C4.87627 12.0619 4.66675 11.8524 4.66675 11.5381V9.44285V9.2857V9.07618C4.66675 9.0238 4.67984 8.97142 4.69294 8.91904C4.70603 8.86666 4.71913 8.81428 4.71913 8.76189C4.77151 8.70951 4.77151 8.70951 4.77151 8.65713L4.92865 8.34285C4.98103 8.1857 5.03341 8.02856 5.13818 7.9238C5.19056 7.76666 5.29532 7.6619 5.45246 7.50475L5.45246 7.50475C5.52915 7.42806 5.60584 7.37944 5.70309 7.31779C5.73868 7.29523 5.77702 7.27092 5.81913 7.24285C5.81913 7.19047 5.87151 7.19047 5.87151 7.19047C5.97627 7.13809 6.08103 7.0857 6.23818 6.98094H6.29056C6.32336 6.97001 6.35387 6.95908 6.38306 6.94862C6.49371 6.90898 6.58526 6.87618 6.70961 6.87618C6.70961 6.8238 6.76199 6.8238 6.81437 6.8238C6.91913 6.77142 7.07627 6.77142 7.23341 6.77142H7.2858H16.7144H16.7667C16.9239 6.77142 17.0287 6.77142 17.2382 6.66666C17.2382 6.71904 17.2906 6.71904 17.3429 6.71904C17.4477 6.71904 17.6048 6.77142 17.7096 6.8238C17.7358 6.8238 17.7489 6.83689 17.762 6.84999C17.7751 6.86308 17.7882 6.87618 17.8144 6.87618C17.8667 6.90237 17.9322 6.94166 17.9977 6.98094C18.0632 7.02023 18.1287 7.05951 18.181 7.0857C18.181 7.13808 18.2334 7.13808 18.2334 7.13808C18.3906 7.24285 18.4953 7.34761 18.6001 7.45237C18.8096 7.66189 19.0191 7.9238 19.1239 8.23809C19.1501 8.29047 19.1632 8.34285 19.1763 8.39523C19.1894 8.44761 19.2025 8.49999 19.2287 8.55237C19.281 8.60475 19.281 8.60475 19.281 8.65713V8.70951C19.281 8.76189 19.2941 8.81428 19.3072 8.86666C19.3203 8.91904 19.3334 8.97142 19.3334 9.0238ZM12.7858 13.3714L17.5001 10.7524C18.1287 10.3857 18.3382 9.75713 18.2858 9.23332V9.18094C18.2858 9.11957 18.2678 9.07618 18.2529 9.04023C18.2424 9.01481 18.2334 8.99312 18.2334 8.97142C18.2072 8.91904 18.181 8.85356 18.1548 8.78808C18.1287 8.72261 18.1025 8.65713 18.0763 8.60475C18.0239 8.60475 18.0239 8.55237 18.0239 8.55237C18.0239 8.52618 18.0108 8.51308 17.9977 8.49999C17.9846 8.48689 17.9715 8.4738 17.9715 8.44761L17.8144 8.29047C17.5525 7.97618 17.1858 7.81904 16.7667 7.81904H16.7144H7.2858H7.23341C6.81437 7.81904 6.4477 8.02856 6.1858 8.23809L6.13341 8.29047C6.13341 8.34285 6.08103 8.39523 6.02865 8.44761C6.00864 8.46762 5.98864 8.47998 5.97155 8.49054C5.9439 8.50763 5.92389 8.52 5.92389 8.55237V8.60475C5.91296 8.63755 5.90203 8.66807 5.89157 8.69725C5.85193 8.80791 5.81913 8.89945 5.81913 9.0238C5.76675 9.07618 5.76675 9.18094 5.76675 9.23332C5.71437 9.70475 5.87151 10.3857 6.55246 10.7524L11.2667 13.3714C11.7382 13.6333 12.3144 13.6333 12.7858 13.3714ZM5.19056 14.1047C5.47985 14.1047 5.71437 13.8702 5.71437 13.5809C5.71437 13.2916 5.47985 13.0571 5.19056 13.0571C4.90127 13.0571 4.66675 13.2916 4.66675 13.5809C4.66675 13.8702 4.90127 14.1047 5.19056 14.1047Z" fill="white"/>
</svg>
